/* XPM */
const static char *callcommander_xpm[]={
"32 32 6 1",
". c None",
"# c #000000",
"d c #008080",
"b c #808080",
"a c #ff0000",
"c c #ffffff",
"................................",
".......#####....................",
".....a#########.................",
".....############...............",
"....###############.............",
"...##################...........",
"...#bb################..........",
"...#b#b################.........",
"....#b#b################........",
"....c#b#b#####bb#########.......",
"....cc#b#b####bbbb########......",
"....ccc#bb##..##bbb########.....",
"....c.c.###.....#bbb#######.....",
"....c.c..........#bbb#######....",
"...aa.aa.d........#bbb######....",
"...aa.aad..........#bb#######...",
"...a.a.a............#bb######...",
"...a.a.a............#bb#######..",
"...aa.aa.............#########..",
"...aa.aa.............#########..",
"..cc...cc...........###########.",
"..c.c.c.c..........############.",
"..c..c..c..........#bb#########.",
"..c..c..c..........#b#b########.",
"..c.c.c.c...........#b#b#######.",
"..cc...cc............#b#b#####..",
".aa.....aa............#b#b###...",
".a.aa.aa.a.............#bb#####.",
".a...a...a..............###...#.",
"a....a....a...................##",
"a..aa.aa..a.....................",
"aaa.....aaa....................."};
