/* XPM */
const static char *callcommander_xpm[]={
"48 48 15 1",
"d c None",
". c None",
"# c #010101",
"a c #000000",
"e c #000000",
"m c #2b2b2b",
"c c #000000",
"i c #202020",
"h c #404040",
"k c #5f5f5f",
"g c #606060",
"j c #7f7f7f",
"f c #808080",
"b c #ff0000",
"l c #ffffff",
"................................................",
"..........#aaaaaaa..............................",
"........b.accccccc..............................",
".......dbccccccccccccca.........................",
".......dbccccccccccccceaa#......................",
".......accccccccccccccccca......................",
"......cccccccccccccccccccccca...................",
"....#acccccccccccccccccccccceaa#................",
"....acccccccccccccccccccccccccca................",
"....acfffcccccccccccccccccccccccc...............",
"....acfghhicccccccccccccccccccccca#.............",
"....acfhcfhccccccccccccccccccccccca.............",
"......chfchfcccccccccccccccccccccccc............",
"......jkhhhhhiccccccchhhcccccccccccca#..........",
"......ljcfhcfhcccccccfffccccccccccccca..........",
"......lllchfchfccccccffffffcccccccccccc.........",
"......ldljkhhgfcccaaahhhfffhicccccccccca#.......",
"......ldldjcfffccc...cccffffhccccccccccca.......",
"......ll.ll.cccca.......chffffcccccccccca.......",
"......ll.ll.aaaa#.......amhfffhiccccccccea......",
"......ld.dl..............acffffhcccccccccc......",
"....dbdd.ddb.dd............chffffccccccccc......",
"....dbbd.dbbddd............amhfffccccccccca#....",
"....dbdb.bdbddd.............acfffcccccccccca....",
"....db.bdbdb..................chffhcccccccca....",
"....db.db.db..................chffhccccccccea...",
"....db.bdbdb..................chffhcccccccccc...",
"....dbdb.bdb...................accccccccccccc...",
"....dbbd.dbb...................accccccccccccc...",
"....dbbd.dbb...................accccccccccccc...",
"...lll....dlll................cccccccccccccccca.",
"...lddldddlddl..............#acccccccccccccccca.",
"...ldddldld.dl..............accccccccccccccccca.",
"...ld.ddl..ddl..............acfffccccccccccccca.",
"...ld.dldl.ddl..............acfghhiccccccccccca.",
"...ld.ldddlddl..............acfhcfhccccccccccca.",
"...ldldddddldl................chfchfcccccccccca.",
"...lldddddddll................amhhhhhiccccccca#.",
"...lddd...dddl.................acfhcfhccccccc...",
".dbbb.....ddbbb..................chfchfcccca....",
".dbddbbdddbbddb..................amhhgfcccceaa#.",
".db.dddbdbdd.db...................acfffccccccca.",
".db....bbbddddb.....................cccca....ca.",
"bbb..bbdddbbddbbb...................aaaa#....cea",
"bd..bdddddd.b..db............................ccc",
"bdbbdddddddd.bbdb...............................",
"bbdddddddddddddbb...............................",
"bddddd....ddddddb..............................."};
