/* XPM */
const static char *callcommander_xpm[]={
"16 16 21 1",
". c None",
"# c #010101",
"r c #ff0101",
"q c #ffffff",
"a c #000000",
"o c #008080",
"b c #7f0000",
"m c #ff0000",
"k c #ffffff",
"d c #000000",
"l c #2b2b2b",
"s c #ff0000",
"p c #ffffff",
"c c #000000",
"f c #202020",
"h c #404040",
"g c #5f5f5f",
"e c #606060",
"j c #808080",
"n c #ff0000",
"i c #ffffff",
"...#aa..........",
"..bccccd#.......",
".#cccccccd#.....",
".aefccccccc#....",
"..ghfcchcccc#...",
"..igecahjfccc#..",
"..kka#..ljfccd..",
".mmno....ljccc#.",
".mmm......hhccd.",
".mmn......acccc.",
".pqkk....#ccccca",
".kk.k....aefccca",
".pqkk.....lhfcc#",
"mmrms......lecd#",
"m.m.rr......a#.d",
"smrmmm.........."};
