/* XPM */
const static char *callcommander_xpm[]={
"22 22 132 2",
"Qt c None",
".o c #1d1d1d",
".Z c #222222",
"#2 c #ff1414",
"#z c #ff0e0e",
"#3 c #0b0b0b",
"#G c #0c0c0c",
"#m c #ffffff",
".# c #090909",
"#L c #0a0a0a",
".i c #080808",
".b c #070707",
"#C c #ffffff",
".U c #060606",
"#u c #ffffff",
"#9 c #ff0303",
"#0 c #ff0404",
"#U c #040404",
"aa c #ff0404",
"#h c #ffffff",
".3 c #ff0303",
"#s c #ffffff",
"#O c #ff0303",
".h c #020202",
"## c #030303",
"#w c #ffffff",
"a. c #020202",
"#X c #ff0303",
".w c #030303",
".r c #020202",
"#p c #ffffff",
".B c #010101",
".n c #020202",
".C c #cfcfcf",
".J c #ffffff",
".4 c #028080",
"#D c #ffffff",
"ab c #ff0202",
"#F c #ff9a9a",
"#t c #010101",
".a c #020202",
"#c c #ff0101",
"#Z c #ff0202",
"#j c #ff0101",
"#V c #ff0202",
"#. c #028080",
".c c #ff0101",
"#W c #ff0101",
"#6 c #ff0202",
"#5 c #020202",
"#P c #ff0202",
"#8 c #ff0202",
"#y c #ffffff",
"#T c #020202",
".7 c #ff0101",
".1 c #ff9f9f",
"#N c #ff0202",
"#q c #ffffff",
"#f c #ff0101",
"#d c #ff0000",
"#Q c #ff0101",
"#x c #ffffff",
"#o c #ffffff",
".0 c #ff4f4f",
"#7 c #ff0101",
"#Y c #ff0101",
"#4 c #010101",
"#v c #ffffff",
"#b c #ff0000",
"#H c #181818",
"#B c #fffbfb",
".S c #ffffff",
".q c #000000",
".Y c #010101",
".x c #1b1b1b",
"#K c #010101",
".g c #000000",
"#n c #ffffff",
"#l c #ff6666",
".p c #000000",
"#1 c #ff0000",
"#g c #ff0000",
".M c #000000",
".j c #0e0000",
"#A c #ffcfcf",
"#a c #ff0000",
".d c #1d0000",
"#k c #ff1111",
".f c #000000",
".m c #000000",
"#r c #ffffff",
".N c #252525",
"#M c #ff0000",
".2 c #ff9090",
".T c #efefef",
"#R c #ff0000",
".9 c #973434",
"#e c #ff0000",
"#E c #ffecec",
".5 c #3a3a3a",
".8 c #ff0000",
"#i c #ff3636",
"a# c #ff0000",
".A c #000000",
".v c #000000",
".s c #1e1e1e",
".6 c #ff0000",
".l c #000000",
".V c #3e3e3e",
"#S c #000000",
"#I c #484848",
"#J c #000000",
".e c #000000",
".k c #020000",
".R c #030303",
".I c #060606",
".H c #101010",
".u c #1b1b1b",
".z c #202020",
".F c #272727",
".y c #404040",
".O c #484848",
".E c #4b4b4b",
".X c #4c4c4c",
".Q c #535353",
".t c #626262",
".G c #686868",
".L c #797979",
".D c #7a7a7a",
".W c #7d7d7d",
".P c #808080",
".K c #ffffff",
"QtQtQtQt.#.a.a.a.bQtQtQtQtQtQtQtQtQtQtQtQtQt",
"QtQtQt.c.d.e.e.e.f.g.hQtQtQtQtQtQtQtQtQtQtQt",
"QtQt.i.j.k.e.e.e.e.e.l.m.n.oQtQtQtQtQtQtQtQt",
"QtQt.p.e.e.e.e.e.e.e.e.e.e.q.rQtQtQtQtQtQtQt",
"QtQt.s.t.u.e.e.e.e.e.e.e.e.e.v.wQtQtQtQtQtQt",
"QtQt.x.y.y.z.e.e.e.e.e.e.e.e.e.A.BQtQtQtQtQt",
"QtQt.C.D.E.y.u.e.e.F.G.H.I.e.e.e.A.wQtQtQtQt",
"QtQt.J.K.L.y.t.e.M.N.O.P.Q.R.e.e.e.v.rQtQtQt",
"QtQt.J.S.T.x.s.p.i.U.n.V.W.X.R.e.e.e.Y.ZQtQt",
"QtQt.0.1.2.3.4QtQtQtQt.h.5.W.Q.I.e.e.e.BQtQt",
"QtQt.6.7.8.9#.QtQtQtQtQt##.V.P.H.e.e.e.mQtQt",
"QtQt#a#b#c#dQtQtQtQtQtQtQt.B.O.G.e.e.e.l##Qt",
"QtQt#e#f#g#dQtQtQtQtQtQtQt.U.N.F.e.e.e.e.gQt",
"Qt#h#i#j#k#l#mQtQtQtQtQtQt.i.M.e.e.e.e.e.f.b",
"Qt#n#o#p#q#r#sQtQtQtQtQtQt.p.e.e.e.e.e.e.e#t",
"Qt#n#u#v#w#x#sQtQtQtQtQtQt.s.t.u.e.e.e.e.e#t",
"Qt#n#s#x#y#x#sQtQtQtQtQtQt.x.y.y.z.e.e.e.e#t",
"#z#A#B#C#D#E#FQtQtQtQtQtQt#G#H#I.y.u.e#J#K#L",
"#c#M#N#O#P#Q#RQtQtQtQtQtQtQtQt#H.y.t.e#S#T#U",
"#V#W#X#Y#Z#0#1#2QtQtQtQtQtQtQt#3.x.s.p.n#4#5",
"#aQt#6#7#8.3#9#bQtQtQtQtQtQtQtQtQtQtQtQta..g",
"a##a#Vaaab#Q#M#bQtQtQtQtQtQtQtQtQtQtQtQtQtQt"};
