/* XPM */
static const char * client_segment_xpm[] = {
"16 16 44 1",
" 	c None",
".	c #888A85",
"+	c #AFB0AD",
"@	c #F3F3F2",
"#	c #FEFEFE",
"$	c #F8F8F7",
"%	c #F9F9F9",
"&	c #FBFBFB",
"*	c #F3F4F3",
"=	c #F9FAF9",
"-	c #FBFCFB",
";	c #F6F7F6",
">	c #F5F6F5",
",	c #EBECEA",
"'	c #F0F1EF",
")	c #F5F4F3",
"!	c #F2F3F2",
"~	c #EEEFEE",
"{	c #E8E9E6",
"]	c #EEEFED",
"^	c #EFEFEE",
"/	c #EDEDEB",
"(	c #E9EBE9",
"_	c #EEEEED",
":	c #E5E7E4",
"<	c #E7E9E6",
"[	c #E8E9E7",
"}	c #E7E8E5",
"|	c #898B86",
"1	c #ECEDEB",
"2	c #E3E4E1",
"3	c #E3E5E1",
"4	c #EDEDEC",
"5	c #92948F",
"6	c #BABBB8",
"7	c #8C8E89",
"8	c #EF1313",
"9	c #BABCB7",
"0	c #9B9D98",
"a	c #8B8D88",
"b	c #9B9C98",
"c	c #B8BAB6",
"d	c #EF3030",
"e	c #91938E",
"      ....      ",
"    .+@##@+.    ",
"    +#$%&%#+    ",
"   .@*@=-;>@.   ",
"   .#,')>!~#.   ",
"   .#{,]^/(#.   ",
"   .@_:<[}~@.   ",
"   |+#1234#+|   ",
"   56+@##@+65   ",
"  78890aabc887  ",
"  788888888887  ",
"  788888888887  ",
"  788888888887  ",
"  788888888887  ",
"  7d88888888d7  ",
"  eeeeeeeeeeee  "};
