/* XPM */
static const char * monitor_xpm[] = {
"16 16 84 1",
" 	c None",
".	c #000000",
"+	c #E38A7B",
"@	c #DA6450",
"#	c #9A2410",
"$	c #CE3116",
"%	c #2F0A03",
"&	c #230702",
"*	c #1C1C1C",
"=	c #B35A4B",
"-	c #E98C76",
";	c #D66757",
">	c #4B4B4B",
",	c #DF6C51",
"'	c #DF745F",
")	c #D96753",
"!	c #DA6D5B",
"~	c #D86B59",
"{	c #D4624F",
"]	c #D56654",
"^	c #AC210F",
"/	c #BF7A6A",
"(	c #D75C46",
"_	c #F7E0DD",
":	c #F4E0DD",
"<	c #F6E0DD",
"[	c #EFCFCA",
"}	c #E1CECA",
"|	c #CE513C",
"1	c #921709",
"2	c #282828",
"3	c #E27A62",
"4	c #E18879",
"5	c #F2CDC7",
"6	c #BDAFAC",
"7	c #F1CDC7",
"8	c #F1CCC5",
"9	c #D39388",
"0	c #A2170A",
"a	c #8C5246",
"b	c #DD664C",
"c	c #F2CEC7",
"d	c #F6DFDA",
"e	c #F2D3CE",
"f	c #F6DFDB",
"g	c #DEC3BF",
"h	c #A31D0C",
"i	c #790C05",
"j	c #232323",
"k	c #D37B68",
"l	c #DA4121",
"m	c #F7DFDA",
"n	c #C6B5B1",
"o	c #EAC7C1",
"p	c #F1CBC4",
"q	c #C0B2AF",
"r	c #F0CEC7",
"s	c #F1CEC7",
"t	c #C22610",
"u	c #A31609",
"v	c #E17F6A",
"w	c #D6391A",
"x	c #CE3216",
"y	c #CC3015",
"z	c #C92D13",
"A	c #C72B12",
"B	c #C52911",
"C	c #C32711",
"D	c #C02911",
"E	c #B32610",
"F	c #BD2811",
"G	c #930904",
"H	c #C65B45",
"I	c #B13E28",
"J	c #B62B13",
"K	c #B22711",
"L	c #AE2310",
"M	c #AA1F0E",
"N	c #A51A0C",
"O	c #A1170A",
"P	c #9D1208",
"Q	c #8F0E05",
"R	c #8A0903",
"S	c #640400",
"                ",
"  ............  ",
" .+@@@@@@@@@@#. ",
".+$$.%%%%%&.$$#.",
".@$#..    .*$$$.",
".=#.-......;.##.",
" ..>,')!~{]^... ",
"  ./(_:<[<}|1.  ",
"  234:5676890.  ",
" .abcdddefdghi. ",
" jklm8nopqrstu. ",
" .vwxyzABCDEFG. ",
" .HIJKLMNOPQRS. ",
"  ............  ",
"                ",
"                "};
